<?xml version="1.0"?>
<svg width="512" height="512" xmlns="http://www.w3.org/2000/svg" xmlns:svg="http://www.w3.org/2000/svg" version="1.1" xml:space="preserve">
 <style type="text/css">.st0{fill:#000000;}</style>
 <style class="darkreader darkreader--sync" media="screen"/>

 <g class="layer">
  <title>Layer 1</title>
  <g id="svg_1">
   <path class="st0" d="m510.26,187.79c-2.16,-7.42 -6.12,-13.73 -11.08,-18.57c-7.48,-7.3 -16.82,-11.39 -26.21,-13.78c-9.43,-2.38 -19.11,-3.11 -28.04,-3.12c-7.73,0 -14.89,0.56 -20.74,1.22l0.01,0c-4.73,0.53 -9.07,1.42 -12.78,2.1c-3.7,0.71 -6.83,1.16 -8.6,1.14l-0.56,-0.04c-0.03,-0.17 -0.06,-0.27 -0.09,-0.48c-2.63,-18.6 -4.03,-36.87 -9.06,-55.5c-5.01,-18.62 -13.98,-37.46 -30.99,-55.82c-8.07,-8.83 -17.97,-13.46 -27.47,-13.41c-8.43,-0.01 -15.98,3.49 -21.32,8.78c-5.33,5.28 -8.76,12.52 -8.78,20.51c0,3.68 0.88,7.46 2.48,11.02l-0.06,0.03c4.99,13.44 7.79,25.79 7.76,35.72c0,5.94 -0.94,10.96 -2.75,15.14c-2.77,6.23 -7.2,11.12 -15.92,15.2c-8.7,4.02 -21.82,6.68 -40.06,6.66c-24.39,0.04 -39.4,-4.76 -47.46,-11.04c-4.08,-3.15 -6.69,-6.62 -8.53,-10.82c-1.8,-4.18 -2.75,-9.2 -2.75,-15.14c-0.03,-9.93 2.77,-22.28 7.77,-35.72l-0.07,-0.02c1.6,-3.58 2.49,-7.35 2.49,-11.02c-0.03,-8 -3.45,-15.24 -8.79,-20.52c-5.33,-5.29 -12.88,-8.79 -21.31,-8.79c-9.5,-0.04 -19.41,4.57 -27.48,13.41c-17.01,18.36 -25.98,37.21 -30.98,55.83c-5.04,18.63 -6.43,36.9 -9.06,55.49c-0.03,0.23 -0.06,0.32 -0.1,0.48l-0.55,0.05c-1.77,0.02 -4.9,-0.43 -8.6,-1.14c-3.72,-0.69 -8.05,-1.57 -12.79,-2.1l0.01,0c-5.84,-0.65 -13,-1.21 -20.73,-1.22c-11.9,0.03 -25.15,1.25 -37.34,6.13c-6.09,2.46 -11.94,5.91 -16.91,10.77c-4.96,4.84 -8.92,11.15 -11.08,18.57c-1.18,4.02 -1.74,8.22 -1.74,12.49c0.1,18.28 9.84,37.59 27.68,53.82c16.85,15.24 41.25,27.62 72.73,33.24c0.12,0.49 0.22,0.9 0.35,1.46c1.87,8.66 4.1,25.24 8.24,44.59c6.29,29.11 16.9,65.17 39.16,94.83c11.14,14.8 25.31,27.98 43.2,37.37c17.88,9.4 39.38,14.9 64.64,14.89c37.98,0.08 67.42,-12.58 88.9,-31.67c32.29,-28.67 47.18,-70.13 55.62,-104.56c4.18,-17.23 6.7,-32.85 8.65,-44.23c0.91,-5.35 1.71,-9.74 2.4,-12.67c31.5,-5.62 55.9,-17.99 72.75,-33.25c17.84,-16.23 27.58,-35.54 27.68,-53.82c0,-4.27 -0.56,-8.47 -1.74,-12.49zm-344.71,-128.38c5.12,-5.46 9.02,-6.51 11.8,-6.55c2.5,0 4.67,1 6.32,2.61c1.65,1.63 2.47,3.7 2.45,5.36l-0.62,2.57l-0.26,0.52l-0.2,0.54c-5.51,14.92 -9.08,29.38 -9.1,43.13c0,8.2 1.31,16.2 4.49,23.59c2.53,5.95 6.41,11.29 11.32,15.91c-7.96,-0.16 -16.6,-0.29 -24.99,-0.39c-13.74,-0.17 -26.59,-0.25 -34.13,-0.31c1.81,-14.35 3.45,-27.6 6.84,-40.05c4.41,-16.09 11.44,-31.02 26.08,-46.93zm153.43,382.43c-16.23,10.59 -36.44,17.28 -62.98,17.31c-33.38,-0.08 -56.79,-10.53 -74.78,-26.31c-12.84,-11.27 -22.72,-25.69 -30.46,-41.2c0.9,-4.78 3.02,-9.13 6.44,-13.39c6.93,-8.61 19.78,-16.31 36.79,-21.51c16.97,-5.26 37.92,-8.13 60.57,-8.13c30.21,-0.03 57.4,5.15 76.14,14.1c9.39,4.46 16.59,9.81 21.24,15.54c4.48,5.58 6.7,11.33 6.89,17.99c-0.63,1.16 -1.15,2.37 -1.8,3.5c-9.52,16.74 -21.84,31.5 -38.05,42.1zm151.02,-203.55c-14.41,13.06 -36.71,24.53 -67.49,29.03l-2.38,0.35l-1.99,1.33c-2.58,1.79 -3.58,3.53 -4.39,4.91c-1.43,2.7 -2.02,4.92 -2.7,7.57c-1.21,4.86 -2.22,10.95 -3.48,18.32c-3.22,19.2 -8.05,46.9 -18.27,73.64c-1.24,-2.07 -2.59,-4.08 -4.13,-5.96c-10.2,-12.44 -25.98,-21.14 -44.99,-27.05c-19.05,-5.88 -41.53,-8.87 -65.62,-8.87c-32.12,0.02 -61.36,5.28 -83.46,15.74c-11.04,5.27 -20.37,11.88 -27.14,20.18c-0.82,1 -1.47,2.13 -2.21,3.18c-3.9,-10.57 -7.08,-21.23 -9.54,-31.45c-1.56,-6.43 -2.84,-12.55 -3.99,-18.44c6.94,1.91 14.1,2.94 21.36,2.94c20.88,-0.02 42.38,-7.34 61.09,-19.45c18.71,-12.13 34.7,-29.12 44.26,-48.95c5.88,-12.21 8.32,-24.6 8.32,-36.31c-0.01,-18.7 -6.13,-35.64 -14.27,-48.28c-1.23,-1.91 -2.59,-3.51 -3.9,-5.21c3.54,0.2 7.08,0.41 10.92,0.41c26.91,-0.04 46.61,-4.95 60.42,-15.43c6.86,-5.23 11.97,-11.92 15.14,-19.31c3.19,-7.39 4.5,-15.39 4.5,-23.59c-0.02,-13.75 -3.59,-28.21 -9.1,-43.13l-0.2,-0.54l-0.26,-0.51l-0.62,-2.59c-0.02,-1.65 0.8,-3.73 2.45,-5.34c1.65,-1.62 3.82,-2.62 6.32,-2.62c2.77,0.04 6.68,1.09 11.8,6.55c14.64,15.91 21.67,30.85 26.08,46.93c4.38,16.07 5.82,33.45 8.52,52.87c0.39,2.78 1.12,5.48 2.41,8.04c1.87,3.84 5.32,7.15 8.99,8.78c3.68,1.69 7.21,2.05 10.37,2.07c4.46,-0.02 8.51,-0.77 12.48,-1.49c3.95,-0.74 7.78,-1.48 11.26,-1.87l0.01,-0.01c5.25,-0.58 11.66,-1.08 18.36,-1.08c10.29,-0.03 21.23,1.26 29.36,4.58c4.08,1.64 7.42,3.73 9.95,6.21c2.53,2.51 4.36,5.38 5.55,9.37c0.56,1.9 0.88,4.07 0.88,6.47c0.1,10.26 -6.19,24.97 -20.67,38.01z" id="svg_2"/>
   <path class="st0" d="m211.47,389.84c-6.87,0 -12.44,8.76 -12.44,19.54c0,10.8 5.57,19.56 12.44,19.56c6.87,0 12.44,-8.76 12.44,-19.56c0,-10.78 -5.57,-19.54 -12.44,-19.54z" id="svg_3"/>
   <path class="st0" d="m301.45,389.84c-6.87,0 -12.45,8.76 -12.45,19.54c0,10.8 5.58,19.56 12.45,19.56c6.87,0 12.44,-8.76 12.44,-19.56c0,-10.78 -5.57,-19.54 -12.44,-19.54z" id="svg_4"/>
  </g>
 </g>
</svg>